<?xml version="1.0" encoding="iso-8859-1"?>
<!-- Generator: Adobe Illustrator 19.0.0, SVG Export Plug-In . SVG Version: 6.00 Build 0)  -->
<svg version="1.1" id="Layer_1" xmlns="http://www.w3.org/2000/svg" xmlns:xlink="http://www.w3.org/1999/xlink" x="0px" y="0px"
	 viewBox="0 0 512 512" style="enable-background:new 0 0 512 512;" xml:space="preserve">
<path style="fill:#B7364A;" d="M497.287,123.474c-5.536-5.536-13.08-7.832-20.289-6.902c0.93-7.208-1.366-14.754-6.904-20.289
	c-5.535-5.534-13.08-7.832-20.288-6.903c0.931-7.206-1.366-14.754-6.901-20.287c-5.536-5.538-13.081-7.833-20.289-6.903
	c0.929-7.207-1.366-14.755-6.902-20.288c-5.536-5.538-13.081-7.834-20.288-6.905c0.93-7.205-1.367-14.752-6.903-20.287
	c-9.48-9.481-24.852-9.48-34.331,0L172.408,196.492l143.095,143.095l181.783-181.779
	C506.767,148.324,506.767,132.957,497.287,123.474z"/>
<path style="fill:#63A2AE;" d="M172.408,196.492L19.595,349.307c-15.999,16-15.998,41.939,0,57.941l85.156,85.153
	c16.001,16,41.939,16.001,57.939,0.002l152.814-152.816L172.408,196.492z"/>
<g>
	<path style="fill:#E0A03D;" d="M273.919,173.343l-62.33,62.33l103.915,103.914l166.246-166.243
		C424.358,115.953,331.311,115.953,273.919,173.343z"/>
	<path style="fill:#E0A03D;" d="M381.644,130.352c-0.936-36.329-15.264-72.379-42.991-100.106L172.409,196.494l39.179,39.179
		l62.33-62.33C303.584,143.679,342.774,129.351,381.644,130.352z"/>
</g>
<g>
	<path style="fill:#491E17;" d="M502.66,118.101c-4.971-4.97-11.298-8.096-18.147-9.032c-0.926-6.807-4.043-13.157-9.046-18.159
		c-4.971-4.97-11.296-8.095-18.146-9.032c-0.925-6.806-4.041-13.157-9.042-18.157c-4.97-4.971-11.297-8.098-18.148-9.034
		c-0.926-6.808-4.042-13.157-9.043-18.157c-4.971-4.972-11.297-8.098-18.148-9.035c-0.926-6.806-4.042-13.156-9.044-18.157
		C387.876,3.315,379.871,0,371.357,0s-16.519,3.315-22.538,9.336l-10.165,10.165V19.5l-38.496,38.496L172.408,185.745l0,0
		l-1.874,1.876l-8.872,8.872l0,0L14.221,343.934c-18.934,18.935-18.934,49.748,0,68.688l85.156,85.153
		c9.174,9.174,21.371,14.226,34.345,14.226c0.001,0,0.001,0,0.002,0c12.97,0,25.167-5.051,34.34-14.224l151.631-151.633
		l172.802-172.799l0,0l10.164-10.164C515.086,150.751,515.086,130.529,502.66,118.101z M315.503,328.841l-93.167-93.167
		l56.956-56.956c26.32-26.32,61.316-40.814,98.542-40.814c1.193,0,2.38,0.016,3.572,0.046c33.351,0.834,64.735,13.326,89.454,35.539
		L315.503,328.841z M211.588,246.42L211.588,246.42l93.168,93.167l-124.75,124.75l0.001-249.499L211.588,246.42z M373.02,122.784
		c-5.725,0.174-11.395,0.658-16.993,1.445c-0.286,0.04-0.571,0.074-0.857,0.116c-0.834,0.122-1.664,0.258-2.494,0.393
		c-0.397,0.065-0.796,0.124-1.194,0.192c-0.769,0.132-1.535,0.276-2.3,0.418c-0.456,0.085-0.913,0.165-1.368,0.254
		c-0.731,0.143-1.457,0.298-2.185,0.451c-0.485,0.103-0.972,0.201-1.455,0.308c-0.705,0.155-1.406,0.322-2.109,0.487
		c-0.503,0.119-1.007,0.234-1.508,0.359c-0.682,0.167-1.36,0.347-2.039,0.524c-0.519,0.136-1.038,0.269-1.555,0.408
		c-0.66,0.18-1.317,0.369-1.975,0.558c-0.531,0.152-1.062,0.303-1.591,0.46c-0.644,0.193-1.286,0.394-1.927,0.595
		c-0.536,0.167-1.073,0.334-1.608,0.509c-0.631,0.205-1.261,0.418-1.89,0.631c-0.538,0.183-1.077,0.366-1.613,0.555
		c-0.62,0.219-1.237,0.444-1.854,0.67c-0.541,0.198-1.082,0.398-1.621,0.602c-0.607,0.231-1.211,0.467-1.815,0.704
		c-0.544,0.215-1.086,0.431-1.627,0.652c-0.596,0.243-1.19,0.49-1.782,0.741c-0.542,0.23-1.084,0.461-1.624,0.697
		c-0.586,0.255-1.169,0.516-1.752,0.778c-0.541,0.244-1.081,0.491-1.62,0.742c-0.576,0.269-1.149,0.539-1.721,0.815
		c-0.54,0.26-1.079,0.524-1.616,0.789c-0.563,0.279-1.126,0.561-1.686,0.847c-0.541,0.277-1.08,0.557-1.618,0.84
		c-0.551,0.29-1.101,0.582-1.65,0.878c-0.539,0.292-1.075,0.589-1.611,0.888c-0.542,0.302-1.082,0.605-1.621,0.913
		c-0.536,0.307-1.069,0.619-1.601,0.934c-0.53,0.312-1.06,0.624-1.587,0.944c-0.535,0.324-1.067,0.655-1.598,0.987
		c-0.519,0.322-1.037,0.644-1.551,0.974c-0.53,0.339-1.057,0.686-1.584,1.031c-0.51,0.334-1.018,0.668-1.524,1.008
		c-0.528,0.357-1.052,0.719-1.576,1.082c-0.495,0.343-0.993,0.685-1.485,1.035c-0.527,0.374-1.05,0.757-1.573,1.139
		c-0.481,0.351-0.965,0.698-1.442,1.055c-0.529,0.395-1.052,0.798-1.577,1.202c-0.466,0.357-0.933,0.709-1.394,1.073
		c-0.529,0.414-1.052,0.84-1.576,1.261c-0.449,0.362-0.902,0.72-1.348,1.088c-0.534,0.441-1.062,0.892-1.591,1.34
		c-0.428,0.362-0.858,0.718-1.282,1.085c-0.557,0.483-1.106,0.977-1.658,1.467c-0.387,0.344-0.778,0.684-1.162,1.032
		c-0.613,0.557-1.217,1.126-1.822,1.694c-0.316,0.296-0.636,0.586-0.95,0.885c-0.914,0.871-1.821,1.755-2.717,2.652l-56.956,56.957
		l-28.433-28.433L294.562,85.087l43.946-43.946c20.389,22.71,32.654,51.215,35.122,81.621
		C373.427,122.766,373.223,122.777,373.02,122.784z M133.722,496.801c-8.913,0-17.294-3.472-23.597-9.775L24.97,401.875
		c-13.01-13.013-13.01-34.184-0.001-47.194L164.81,214.838l-0.001,264.699l-7.492,7.492
		C151.014,493.332,142.634,496.801,133.722,496.801z M491.913,152.434l-10.292,10.292c-25.755-23.391-58.119-37.202-92.725-39.633
		c-2.456-34.588-16.328-67.039-39.627-92.714l10.297-10.297c3.149-3.149,7.337-4.884,11.791-4.884s8.642,1.735,11.792,4.885
		c3.68,3.68,5.408,8.76,4.739,13.94l-1.26,9.769l9.769-1.258c0.712-0.092,1.437-0.139,2.155-0.139c4.455,0,8.642,1.734,11.789,4.882
		c3.679,3.678,5.406,8.759,4.738,13.942l-1.26,9.771l9.771-1.261c0.713-0.092,1.44-0.14,2.159-0.14
		c4.454,0,8.638,1.733,11.783,4.879c3.68,3.679,5.407,8.76,4.737,13.94l-1.261,9.772l9.772-1.26
		c0.712-0.092,1.437-0.139,2.155-0.139c4.455,0,8.641,1.733,11.787,4.878c3.681,3.68,5.409,8.761,4.74,13.943l-1.261,9.772
		l9.773-1.261c0.713-0.092,1.439-0.14,2.158-0.14c4.453,0,8.638,1.733,11.783,4.877C498.414,135.35,498.413,145.931,491.913,152.434
		z"/>
	<path style="fill:#491E17;" d="M307.143,175.174l8.657,12.491c34.368-23.817,80.032-25.734,116.334-4.888l7.569-13.18
		C398.34,145.844,346.307,148.031,307.143,175.174z"/>
	<polygon style="fill:#491E17;" points="249.204,230.299 259.95,241.047 300.795,200.203 301.23,199.769 290.535,188.972 	"/>
</g>
<g>
</g>
<g>
</g>
<g>
</g>
<g>
</g>
<g>
</g>
<g>
</g>
<g>
</g>
<g>
</g>
<g>
</g>
<g>
</g>
<g>
</g>
<g>
</g>
<g>
</g>
<g>
</g>
<g>
</g>
</svg>
